<?xml version="1.0" encoding="utf-8"?>
<!-- Generator: Adobe Illustrator 16.0.0, SVG Export Plug-In . SVG Version: 6.00 Build 0)  -->
<!DOCTYPE svg PUBLIC "-//W3C//DTD SVG 1.1//EN" "http://www.w3.org/Graphics/SVG/1.1/DTD/svg11.dtd">
<svg version="1.1" xmlns="http://www.w3.org/2000/svg" xmlns:xlink="http://www.w3.org/1999/xlink" x="0px" y="0px" width="1280px"
	 height="800px" viewBox="0 0 1280 800" enable-background="new 0 0 1280 800" xml:space="preserve">
<g id="background-white">
	<rect fill="#FFFFFF" width="1280" height="400"/>
</g>
<g id="background-blue">
	<rect y="400" fill="#4383BF" width="1280" height="400"/>
</g>
<g id="logotipo-white">
</g>
<g id="logotipo-blue">
</g>
<g id="pizza">
	<g>
		<g>
			<text transform="matrix(1 0 0 1 554.2612 583.7676)" fill="#FFFFFF" font-family="'FiraSans-Light'" font-size="76.4536">Support Brazil</text>
			
				<line fill="#FFFFFF" stroke="#FFFFFF" stroke-width="2" stroke-miterlimit="10" x1="531.109" y1="515.777" x2="531.109" y2="591.202"/>
			
				<text transform="matrix(1 0 0 1 225.9966 652.8047)" fill="#FFFFFF" font-family="'FiraSans-UltraLight'" font-size="52.6962" letter-spacing="10">MozPizza Hackathon 2016</text>
			<g>
				<g>
					<path fill="#FFFFFF" d="M237.223,536.078c0.825,1.275,1.189,2.412,1.652,4.811c3.228-3.152,7.21-4.811,11.557-4.811
						c3.926,0,7.148,1.275,9.64,3.877c0.673,0.65,1.32,1.493,1.878,2.318c4.34-4.443,8.225-6.195,13.428-6.195
						c3.707,0,7.221,1.108,9.365,2.953c2.68,2.315,3.53,5.1,3.53,11.579v33.717h-12.046v-31.301c0-5.673-0.671-6.771-3.899-6.771
						c-2.315,0-5.569,1.579-8.241,3.986v34.085h-11.752v-30.854c0-5.918-0.857-7.307-4.306-7.307c-2.29,0-5.464,1.188-8.135,3.606
						v34.555h-12.125v-33.073c0-6.848-0.47-9.806-1.771-12.133L237.223,536.078z"/>
					<path fill="#FFFFFF" d="M332.611,543.111c3.789,4.443,5.479,9.628,5.479,17.313c0,8.152-1.869,13.721-5.957,18.343
						c-3.594,4.071-8.329,6.579-15.629,6.579c-12.895,0-21.304-9.637-21.304-24.54c0-14.919,8.499-24.833,21.304-24.833
						C323.264,535.973,328.54,538.296,332.611,543.111z M310.296,549.959c-0.851,2.509-1.304,5.84-1.304,10.566
						c0,5.451,0.56,9.549,1.571,11.947c1.117,2.596,3.909,3.891,6.298,3.891c5.373,0,7.673-4.813,7.673-16.02
						c0-6.395-0.833-10.571-2.493-12.707c-1.19-1.563-3.124-2.492-5.358-2.492C313.712,545.145,311.3,546.988,310.296,549.959z"/>
					<path fill="#FFFFFF" d="M378.011,536.904v8.523l-20.948,30.281h21.767l-2.969,8.618h-34.904v-7.687l22.301-31.027h-20.438
						v-8.709H378.011z"/>
					<path fill="#FFFFFF" d="M399,523.847c0,4.267-3.391,7.675-7.681,7.675c-4.153,0-7.569-3.408-7.569-7.675
						c0-4.257,3.531-7.692,7.777-7.692C395.689,516.154,399,519.59,399,523.847z M397.544,535.786v48.541h-12.409v-46.591
						L397.544,535.786z"/>
					<path fill="#FFFFFF" d="M420.143,528.113v36.949c0,8.162,0.097,9.26,0.841,10.555c0.471,0.842,1.473,1.295,2.511,1.295
						c0.443,0,0.713,0,1.384-0.17l2.121,7.4c-2.121,0.832-4.719,1.295-7.407,1.295c-5.292,0-9.552-2.495-11.024-6.469
						c-0.931-2.412-1.134-3.9-1.134-10.66v-35.396c0-6.199-0.161-9.988-0.624-14.265l12.693-2.87
						C419.948,518.367,420.143,521.428,420.143,528.113z"/>
					<path fill="#FFFFFF" d="M445.882,528.113v36.949c0,8.162,0.105,9.26,0.866,10.555c0.438,0.842,1.44,1.295,2.476,1.295
						c0.47,0,0.753,0,1.408-0.17l2.113,7.4c-2.113,0.832-4.71,1.295-7.407,1.295c-5.284,0-9.549-2.495-11.03-6.469
						c-0.947-2.412-1.103-3.9-1.103-10.66v-35.396c0-6.199-0.185-9.988-0.663-14.265l12.676-2.87
						C445.729,518.367,445.882,521.428,445.882,528.113z"/>
					<path fill="#FFFFFF" d="M465.356,538.667c4.613-1.95,8.581-2.776,12.951-2.776c7.98,0,13.437,2.956,15.306,8.24
						c0.615,1.943,0.898,3.424,0.842,8.523l-0.301,15.922c0,0.278,0,0.573,0,0.842c0,5.09,0.844,7.041,4.468,9.721l-6.586,7.609
						c-2.9-1.213-5.48-3.353-6.687-5.752c-0.916,0.936-1.943,1.842-2.882,2.496c-2.3,1.669-5.656,2.6-9.544,2.6
						c-10.563,0-16.3-5.383-16.3-14.813c0-11.133,7.704-16.326,22.792-16.326c0.905,0,1.765,0,2.791,0.105v-1.934
						c0-5.29-1.026-7.051-5.592-7.051c-3.934,0-8.604,1.935-13.687,5.37l-5.287-8.896
						C460.16,540.971,462.014,540.051,465.356,538.667z M481.439,563.582c-8.58,0-11.591,1.563-11.591,7.235
						c0,3.69,2.346,6.192,5.495,6.192c2.307,0,4.639-1.206,6.477-3.238l0.203-10.189H481.439z"/>
				</g>
			</g>
		</g>
		<g>
			<path fill="#FFFFFF" d="M377.19,480.773c-46.67-19.564-98.169-19.787-145.008-0.621l-3.535,1.446l1.446,3.535l0,0l17.364,42.437
				l4.125-0.004l4.125-0.006l0,0l-9.557-23.355c37.85-14.48,79.096-14.302,116.86,0.507l-9.527,22.729l4.144-0.005l4.146-0.005
				l17.462-41.658C380.052,483.828,379.136,481.59,377.19,480.773z M365.967,497.666c-39.647-15.595-82.972-15.78-122.708-0.533
				l-4.633-11.321c42.806-16.5,89.407-16.296,132.07,0.573L365.967,497.666z"/>
			<circle fill="#FFFFFF" cx="342.154" cy="522.292" r="5.094"/>
			<path fill="#FFFFFF" d="M271.933,509.201c-7.635,3.124-12.195,10.568-12.02,18.354l38.703-0.048
				c0.053-2.57-0.404-5.192-1.44-7.724C293.128,509.891,281.825,505.152,271.933,509.201z"/>
			<circle fill="#FFFFFF" cx="311.996" cy="508.106" r="7.131"/>
		</g>
	</g>
	<g>
		<g>
			<text transform="matrix(1 0 0 1 554.2612 224.397)" fill="#4383BF" font-family="'FiraSans-Light'" font-size="76.4536">Support Brazil</text>
			
				<line fill="#4383BF" stroke="#4383BF" stroke-width="2" stroke-miterlimit="10" x1="531.109" y1="156.406" x2="531.109" y2="231.831"/>
			
				<text transform="matrix(1 0 0 1 225.9966 293.4331)" fill="#4383BF" font-family="'FiraSans-UltraLight'" font-size="52.6962" letter-spacing="10">MozPizza Hackathon 2016</text>
			<g>
				<g>
					<path fill="#4383BF" d="M237.223,176.707c0.825,1.275,1.189,2.412,1.652,4.811c3.228-3.152,7.21-4.811,11.557-4.811
						c3.926,0,7.148,1.275,9.64,3.877c0.673,0.65,1.32,1.493,1.878,2.318c4.34-4.443,8.225-6.195,13.428-6.195
						c3.707,0,7.221,1.108,9.365,2.953c2.68,2.315,3.53,5.1,3.53,11.579v33.717h-12.046v-31.301c0-5.673-0.671-6.771-3.899-6.771
						c-2.315,0-5.569,1.579-8.241,3.986v34.085h-11.752v-30.854c0-5.918-0.857-7.307-4.306-7.307c-2.29,0-5.464,1.188-8.135,3.606
						v34.555h-12.125v-33.073c0-6.848-0.47-9.806-1.771-12.133L237.223,176.707z"/>
					<path fill="#4383BF" d="M332.611,183.74c3.789,4.443,5.479,9.628,5.479,17.313c0,8.152-1.869,13.721-5.957,18.343
						c-3.594,4.071-8.329,6.579-15.629,6.579c-12.895,0-21.304-9.637-21.304-24.54c0-14.919,8.499-24.833,21.304-24.833
						C323.264,176.602,328.54,178.925,332.611,183.74z M310.296,190.588c-0.851,2.509-1.304,5.84-1.304,10.566
						c0,5.451,0.56,9.549,1.571,11.947c1.117,2.596,3.909,3.891,6.298,3.891c5.373,0,7.673-4.813,7.673-16.02
						c0-6.395-0.833-10.571-2.493-12.707c-1.19-1.563-3.124-2.492-5.358-2.492C313.712,185.773,311.3,187.617,310.296,190.588z"/>
					<path fill="#4383BF" d="M378.011,177.533v8.523l-20.948,30.281h21.767l-2.969,8.618h-34.904v-7.687l22.301-31.027h-20.438
						v-8.709H378.011z"/>
					<path fill="#4383BF" d="M399,164.476c0,4.267-3.391,7.675-7.681,7.675c-4.153,0-7.569-3.408-7.569-7.675
						c0-4.257,3.531-7.692,7.777-7.692C395.689,156.783,399,160.219,399,164.476z M397.544,176.415v48.541h-12.409v-46.591
						L397.544,176.415z"/>
					<path fill="#4383BF" d="M420.143,168.742v36.949c0,8.162,0.097,9.26,0.841,10.555c0.471,0.842,1.473,1.295,2.511,1.295
						c0.443,0,0.713,0,1.384-0.17l2.121,7.4c-2.121,0.832-4.719,1.295-7.407,1.295c-5.292,0-9.552-2.495-11.024-6.469
						c-0.931-2.412-1.134-3.9-1.134-10.66v-35.396c0-6.199-0.161-9.988-0.624-14.265l12.693-2.87
						C419.948,158.996,420.143,162.057,420.143,168.742z"/>
					<path fill="#4383BF" d="M445.882,168.742v36.949c0,8.162,0.105,9.26,0.866,10.555c0.438,0.842,1.44,1.295,2.476,1.295
						c0.47,0,0.753,0,1.408-0.17l2.113,7.4c-2.113,0.832-4.71,1.295-7.407,1.295c-5.284,0-9.549-2.495-11.03-6.469
						c-0.947-2.412-1.103-3.9-1.103-10.66v-35.396c0-6.199-0.185-9.988-0.663-14.265l12.676-2.87
						C445.729,158.996,445.882,162.057,445.882,168.742z"/>
					<path fill="#4383BF" d="M465.356,179.296c4.613-1.95,8.581-2.776,12.951-2.776c7.98,0,13.437,2.956,15.306,8.24
						c0.615,1.943,0.898,3.424,0.842,8.523l-0.301,15.922c0,0.278,0,0.573,0,0.842c0,5.09,0.844,7.041,4.468,9.721l-6.586,7.609
						c-2.9-1.213-5.48-3.353-6.687-5.752c-0.916,0.936-1.943,1.842-2.882,2.496c-2.3,1.669-5.656,2.6-9.544,2.6
						c-10.563,0-16.3-5.383-16.3-14.813c0-11.133,7.704-16.326,22.792-16.326c0.905,0,1.765,0,2.791,0.105v-1.934
						c0-5.29-1.026-7.051-5.592-7.051c-3.934,0-8.604,1.935-13.687,5.37l-5.287-8.896C460.16,181.6,462.014,180.68,465.356,179.296z
						 M481.439,204.211c-8.58,0-11.591,1.563-11.591,7.235c0,3.69,2.346,6.192,5.495,6.192c2.307,0,4.639-1.206,6.477-3.238
						l0.203-10.189H481.439z"/>
				</g>
			</g>
		</g>
		<g>
			<path fill="#4383BF" d="M377.19,121.402c-46.67-19.564-98.169-19.787-145.008-0.621l-3.535,1.446l1.446,3.535l0,0l17.364,42.437
				l4.125-0.004l4.125-0.006l0,0l-9.557-23.355c37.85-14.48,79.096-14.302,116.86,0.507l-9.527,22.729l4.144-0.005l4.146-0.005
				l17.462-41.658C380.052,124.457,379.136,122.219,377.19,121.402z M365.967,138.295c-39.647-15.595-82.972-15.78-122.708-0.533
				l-4.633-11.321c42.806-16.5,89.407-16.296,132.07,0.573L365.967,138.295z"/>
			<circle fill="#4383BF" cx="342.154" cy="162.92" r="5.094"/>
			<path fill="#4383BF" d="M271.933,149.83c-7.635,3.124-12.195,10.568-12.02,18.354l38.703-0.048
				c0.053-2.57-0.404-5.192-1.44-7.724C293.128,150.52,281.825,145.781,271.933,149.83z"/>
			<circle fill="#4383BF" cx="311.996" cy="148.735" r="7.131"/>
		</g>
	</g>
</g>
</svg>
